<svg xmlns="http://www.w3.org/2000/svg" width="32" height="32" viewBox="0 0 100 100">
  <defs>
    <linearGradient id="gearGrad" x1="0%" y1="0%" x2="100%" y2="100%">
      <stop offset="0%" style="stop-color:#00b4d8"/>
      <stop offset="100%" style="stop-color:#2dc653"/>
    </linearGradient>
  </defs>
  <!-- Gear outer -->
  <path d="M50 10 L55 20 L65 15 L65 25 L75 25 L70 35 L80 40 L75 50 L85 55 L75 60 L80 70 L70 70 L75 80 L65 75 L60 85 L50 80 L45 90 L40 80 L30 85 L30 75 L20 75 L25 65 L15 60 L25 55 L15 45 L25 45 L20 35 L30 35 L30 25 L40 30 L45 20 L50 25 Z" 
        fill="url(#gearGrad)" stroke="none"/>
  <!-- Inner circle -->
  <circle cx="50" cy="50" r="25" fill="#001219"/>
  <!-- GV text -->
  <text x="50" y="58" font-family="Arial, sans-serif" font-size="22" font-weight="bold" fill="url(#gearGrad)" text-anchor="middle">GV</text>
  <!-- Arrow -->
  <path d="M60 35 L75 25 L70 40 Z" fill="#2dc653"/>
</svg>
